<svg width="110" height="87" viewBox="0 0 110 87" fill="none" xmlns="http://www.w3.org/2000/svg">
<path d="M107.52 83.5805C100.519 83.5805 93.4955 83.5805 86.4947 83.5805C72.108 83.5805 57.7213 83.5805 43.3346 83.5805C31.5307 83.5805 19.7494 83.5805 7.94553 83.5805C6.13303 83.5805 4.32053 83.5805 2.50803 83.5805C3.07444 84.1469 3.64084 84.7133 4.20725 85.2797C4.20725 79.7289 4.20725 74.1781 4.20725 68.6047C4.20725 66.4297 4.20725 64.2547 4.20725 62.0797C4.20725 57.5484 5.72522 53.0625 8.53459 49.5055C11.6158 45.6312 15.9658 43.0937 20.7916 42.1422C22.4682 41.825 24.1901 41.825 25.8893 41.825C30.851 41.825 35.8354 41.825 40.7971 41.825C54.2096 41.825 67.6221 41.825 81.0572 41.825C82.4619 41.825 83.8666 41.825 85.294 41.825C88.6018 41.825 91.819 42.5047 94.7869 44C99.069 46.175 102.535 49.9133 104.348 54.3539C105.549 57.3219 105.843 60.3578 105.843 63.5297C105.843 70.757 105.843 78.007 105.843 85.2344C105.843 87.432 109.242 87.432 109.242 85.2344C109.242 79.6836 109.242 74.1328 109.242 68.5594C109.242 66.3844 109.242 64.2094 109.242 62.0344C109.242 57.2539 107.792 52.5187 105.073 48.5992C100.474 41.9383 92.9518 38.4039 84.9541 38.4039C80.5135 38.4039 76.0729 38.4039 71.6322 38.4039C57.9705 38.4039 44.2861 38.4039 30.6244 38.4039C26.4557 38.4039 22.219 38.1547 18.1635 39.2422C7.99084 41.9609 0.922092 51.5672 0.854123 61.989C0.808811 69.7375 0.854123 77.4859 0.854123 85.2117C0.854123 86.1406 1.62444 86.9109 2.55334 86.9109C9.55412 86.9109 16.5776 86.9109 23.5783 86.9109C37.9651 86.9109 52.3518 86.9109 66.7385 86.9109C78.5424 86.9109 90.3237 86.9109 102.128 86.9109C103.94 86.9109 105.753 86.9109 107.565 86.9109C109.717 86.9789 109.717 83.5805 107.52 83.5805Z" fill="black"/>
<path d="M2.93703 71.1649C9.93781 69.5563 17.1651 67.1321 24.4151 68.3102C28.6066 68.9899 32.5487 70.3266 36.8761 70.4626C41.1581 70.5758 45.2136 69.4657 49.3597 68.5594C52.7808 67.7891 56.4058 67.7891 59.8722 68.4008C61.4808 68.6727 63.0667 69.1032 64.6526 69.4657C69.8862 70.6665 75.0066 70.7118 80.2628 69.511C81.7808 69.1711 83.2761 68.786 84.7941 68.4688C88.2378 67.7665 91.8628 67.8118 95.3065 68.4688C98.1839 69.0126 101.016 69.7829 103.871 70.4172C104.958 70.6665 106.023 70.9157 107.11 71.1649C109.24 71.6633 110.146 68.3782 108.017 67.8797C100.971 66.2485 93.7659 63.9149 86.448 64.7758C82.2566 65.2743 78.2691 66.7696 74.0323 67.0188C69.7503 67.268 65.7402 66.1805 61.6167 65.2743C58.1503 64.5039 54.548 64.3907 51.0136 64.8438C49.0878 65.093 47.2073 65.5688 45.3042 65.9993C43.0839 66.5204 40.8862 66.9508 38.598 67.0415C35.9245 67.1547 33.3191 66.8149 30.7136 66.2032C25.6612 65.0477 20.7675 64.1188 15.5566 64.8891C12.3847 65.3422 9.25812 66.2258 6.15421 66.9282C4.79484 67.2454 3.43546 67.5625 2.07609 67.8571C-0.0989113 68.4008 0.807339 71.6633 2.93703 71.1649Z" fill="black"/>
<path d="M8.03449 49.6641C8.03449 39.1743 8.03449 28.6618 8.03449 18.1719C8.03449 9.60787 16.4173 4.4196 24.2564 4.4196C27.8814 4.4196 31.5064 4.4196 35.1314 4.4196C48.997 4.4196 62.8853 4.4196 76.7509 4.4196C79.9001 4.4196 83.0493 4.39694 86.1986 4.4196C91.1376 4.46491 96.3259 6.59459 99.3845 10.5821C101.265 13.029 101.967 15.8157 101.967 18.8516C101.967 29.1149 101.967 39.4008 101.967 49.6641C101.967 51.8618 105.366 51.8618 105.366 49.6641C105.366 39.1743 105.366 28.6618 105.366 18.1719C105.366 8.02194 95.9861 1.40631 86.5384 1.04382C83.3439 0.907878 80.1267 1.04382 76.9321 1.04382C63.0665 1.04382 49.1782 1.04382 35.3126 1.04382C31.6423 1.04382 27.9493 1.04382 24.279 1.04382C14.8993 1.04382 5.42902 7.18366 4.6587 17.1071C4.52277 18.7383 4.63605 20.4149 4.63605 22.0462C4.63605 25.3766 4.63605 28.7071 4.63605 32.0375C4.63605 37.8149 4.63605 43.5696 4.63605 49.3469C4.63605 49.4602 4.63605 49.5735 4.63605 49.6868C4.63605 51.8618 8.03449 51.8618 8.03449 49.6641Z" fill="black"/>
<path d="M49.0879 38.472C43.6051 38.472 38.1223 38.472 32.6395 38.472C30.1473 38.472 27.6551 38.472 25.1629 38.472C24.3926 38.472 23.7809 38.1548 23.7809 37.2939C23.7809 36.0931 23.7809 34.8697 23.7809 33.6689C23.7809 30.8822 23.7809 28.0728 23.7809 25.2861C23.7809 24.2892 24.6872 24.2212 25.4348 24.2212C26.477 24.2212 27.5419 24.2212 28.584 24.2212C35.0411 24.2212 41.4981 24.2212 47.9551 24.2212C48.8161 24.2212 50.0622 24.04 50.1301 25.2861C50.1981 26.5322 50.1301 27.8009 50.1301 29.047C50.1301 31.1767 50.1301 33.2837 50.1301 35.4134C50.1301 36.3423 50.5379 38.3814 49.0879 38.472C46.9129 38.5853 46.8903 41.9837 49.0879 41.8705C51.5801 41.7345 53.5512 39.8767 53.5512 37.3392C53.5512 36.1837 53.5512 35.0283 53.5512 33.8728C53.5512 31.0181 53.5512 28.1634 53.5512 25.2861C53.5512 22.8619 51.5348 20.8001 49.0879 20.8001C48.4762 20.8001 47.8872 20.8001 47.2754 20.8001C44.1036 20.8001 40.9317 20.8001 37.7598 20.8001C34.384 20.8001 31.0083 20.8001 27.6325 20.8001C24.9364 20.8001 21.9231 20.5736 20.6997 23.6548C20.2692 24.7423 20.4051 25.9658 20.4051 27.0986C20.4051 28.8431 20.4051 30.5876 20.4051 32.3322C20.4051 33.8275 20.4051 35.3001 20.4051 36.7955C20.4051 38.6533 20.9942 40.1939 22.6028 41.2587C23.9848 42.165 26.2051 41.8705 27.7911 41.8705C30.5778 41.8705 33.3872 41.8705 36.1739 41.8705C40.4786 41.8705 44.7833 41.8705 49.0879 41.8705C51.2856 41.8705 51.2856 38.472 49.0879 38.472Z" fill="black"/>
<path d="M85.1563 38.472C79.6735 38.472 74.1907 38.472 68.7079 38.472C66.2157 38.472 63.7235 38.472 61.2313 38.472C60.461 38.472 59.8493 38.1548 59.8493 37.2939C59.8493 36.0931 59.8493 34.8697 59.8493 33.6689C59.8493 30.8822 59.8493 28.0728 59.8493 25.2861C59.8493 24.2892 60.7555 24.2212 61.5032 24.2212C62.5454 24.2212 63.6102 24.2212 64.6524 24.2212C71.1094 24.2212 77.5665 24.2212 84.0235 24.2212C84.8844 24.2212 86.1305 24.04 86.1985 25.2861C86.2665 26.5322 86.1985 27.8009 86.1985 29.047C86.1985 31.1767 86.1985 33.2837 86.1985 35.4134C86.2212 36.3423 86.6063 38.3814 85.1563 38.472C82.9813 38.5853 82.9587 41.9837 85.1563 41.8705C87.6485 41.7345 89.6196 39.8767 89.6196 37.3392C89.6196 36.1837 89.6196 35.0283 89.6196 33.8728C89.6196 31.0181 89.6196 28.1634 89.6196 25.2861C89.6196 22.8619 87.6032 20.8001 85.1563 20.8001C84.5446 20.8001 83.9555 20.8001 83.3438 20.8001C80.1719 20.8001 77.0001 20.8001 73.8282 20.8001C70.4524 20.8001 67.0766 20.8001 63.7008 20.8001C61.0047 20.8001 57.9915 20.5736 56.768 23.6548C56.3376 24.7423 56.4735 25.9658 56.4735 27.0986C56.4735 28.8431 56.4735 30.5876 56.4735 32.3322C56.4735 33.8275 56.4735 35.3001 56.4735 36.7955C56.4735 38.6533 57.0626 40.1939 58.6712 41.2587C60.0532 42.165 62.2735 41.8705 63.8594 41.8705C66.6462 41.8705 69.4555 41.8705 72.2422 41.8705C76.5469 41.8705 80.8516 41.8705 85.1563 41.8705C87.354 41.8705 87.354 38.472 85.1563 38.472Z" fill="black"/>
</svg>
