<svg width="184.363281" height="77.000977" viewBox="0 0 184.363 77.001" fill="none" xmlns="http://www.w3.org/2000/svg" xmlns:xlink="http://www.w3.org/1999/xlink">
	<desc>
			Created with Pixso.
	</desc>
	<defs/>
	<path id="Subtract" d="M51.1177 19.9766C49.1973 19.9766 47.6187 19.4219 46.3813 18.3125C45.187 17.1611 44.5894 15.7529 44.5894 14.0889C44.5894 12.3818 45.187 10.9736 46.3813 9.86426Q46.8809 9.39941 47.4541 9.05957Q49.0122 8.13672 51.1177 8.13672Q53.1304 8.13672 54.6196 9.01953Q55.2144 9.37207 55.7256 9.86426C56.9629 10.9736 57.5815 12.3818 57.5815 14.0889C57.5815 15.7529 56.9629 17.1611 55.7256 18.3125C54.5308 19.4219 52.9946 19.9766 51.1177 19.9766ZM90.2559 12.041L89.0645 12.041L89.0645 28.6172C87.9551 26.9531 86.4189 25.6299 84.4565 24.6484C82.5366 23.667 80.4033 23.1768 78.0566 23.1768C75.1123 23.1768 72.4458 23.9238 70.0566 25.417C67.667 26.9102 65.7686 29.043 64.3604 31.8164C62.9951 34.5898 62.3125 37.8115 62.3125 41.4805C62.3125 45.1504 62.9951 48.3926 64.3604 51.209C65.7686 53.9824 67.667 56.1367 70.0566 57.6729C72.4458 59.166 75.1123 59.9131 78.0566 59.9131C80.5737 59.9131 82.771 59.4004 84.6484 58.377Q86.9663 57.1406 88.4141 55.2412L88.4146 55.2402Q88.7651 54.7793 89.0645 54.2803L89.0645 59.4004L100.008 59.4004L100.008 21.793L94.7158 16.501L90.2559 12.041ZM15.7441 23.1768C18.2612 23.1768 20.4585 23.6885 22.3359 24.7129Q24.8657 26.0615 26.3584 28.1514Q26.5654 28.4414 26.752 28.7451L26.752 23.6885L37.6958 23.6885L37.6958 59.3369C37.6958 62.6221 37.0347 65.5869 35.7119 68.2324Q35.0073 69.7129 34.0176 70.9688Q32.3115 73.1338 29.7598 74.6328C27.1147 76.2109 23.8081 77.001 19.8398 77.001Q11.9038 77.001 6.97607 73.2246Q4.84521 71.6201 3.50439 69.5127Q1.74365 66.7461 1.34424 63.1123L12.1602 63.1123C12.5015 64.4785 13.312 65.5449 14.5918 66.3125C15.8721 67.123 17.4507 67.5283 19.3281 67.5283C21.5894 67.5283 23.3813 66.8672 24.7041 65.5449C26.0693 64.2646 26.752 62.1953 26.752 59.3369L26.752 54.2803Q26.5479 54.5986 26.3242 54.9023Q24.793 56.9805 22.3359 58.377Q19.52 59.9131 15.7441 59.9131Q12.9023 59.9131 10.4053 58.9854Q9.02197 58.4717 7.74414 57.6729C5.35449 56.1367 3.45605 53.9824 2.04785 51.209Q0 46.9844 0 41.4805Q0 35.9766 2.04785 31.8164Q3.80811 28.3496 6.59082 26.2158Q7.14697 25.79 7.74414 25.417Q9.02197 24.6182 10.4053 24.1045Q12.9023 23.1768 15.7441 23.1768ZM56.5576 23.6885L56.5576 59.4004L45.6133 59.4004L45.6133 23.6885L56.5576 23.6885ZM25.0742 35.8125Q24.7861 35.4277 24.4482 35.0811C22.9546 33.502 21.1201 32.7129 18.9438 32.7129C16.7681 32.7129 14.9121 33.502 13.376 35.0811Q13.1343 35.3291 12.9185 35.5996Q11.1362 37.8271 11.1362 41.4805Q11.1362 45.0664 12.8521 47.376L12.8525 47.377Q13.0967 47.7051 13.376 48.0088C14.9121 49.5869 16.7681 50.377 18.9438 50.377C21.1201 50.377 22.9546 49.5869 24.4482 48.0088Q24.7861 47.6611 25.0742 47.2773Q26.752 45.04 26.752 41.5449Q26.752 38.0498 25.0742 35.8125ZM87.3867 35.8125Q87.0986 35.4277 86.7607 35.0811C85.2671 33.502 83.4326 32.7129 81.2563 32.7129C79.0806 32.7129 77.2246 33.502 75.6885 35.0811Q75.4468 35.3291 75.2314 35.5986L75.231 35.5996Q73.4487 37.8271 73.4487 41.4805Q73.4487 45.0664 75.165 47.377L75.165 47.377Q75.4092 47.7061 75.6885 48.0088C77.2246 49.5869 79.0806 50.377 81.2563 50.377C83.4326 50.377 85.2671 49.5869 86.7607 48.0088Q87.0981 47.6611 87.3862 47.2773L87.3867 47.2773Q89.0645 45.04 89.0645 41.5449Q89.0645 38.0498 87.3867 35.8125ZM117.308 45.8164C118.251 45.8164 119.075 46.0088 119.779 46.3926C120.5 46.7764 121.051 47.2803 121.436 47.9043L121.436 46.0088L125.54 46.0088L125.54 59.377C125.54 60.6084 125.292 61.7207 124.795 62.7129C124.315 63.7207 123.571 64.5205 122.563 65.1123C121.571 65.7051 120.332 66.001 118.843 66.001C116.859 66.001 115.251 65.5283 114.02 64.585C112.788 63.6562 112.083 62.3926 111.907 60.793L115.963 60.793C116.091 61.3047 116.396 61.7051 116.875 61.9932C117.355 62.2969 117.947 62.4482 118.651 62.4482C119.5 62.4482 120.171 62.2012 120.667 61.7051C121.179 61.2246 121.436 60.4482 121.436 59.377L121.436 57.4805C121.036 58.1045 120.483 58.6172 119.779 59.0166C119.075 59.4004 118.251 59.5928 117.308 59.5928C116.204 59.5928 115.204 59.3125 114.308 58.7529C113.412 58.1768 112.699 57.3691 112.171 56.3291C111.66 55.2725 111.403 54.0566 111.403 52.6807C111.403 51.3047 111.66 50.0967 112.171 49.0566C112.699 48.0166 113.412 47.2168 114.308 46.6562C115.204 46.0967 116.204 45.8164 117.308 45.8164ZM144.87 59.5928C143.558 59.5928 142.374 59.3125 141.318 58.7529C140.278 58.1924 139.454 57.3926 138.846 56.3525C138.254 55.3125 137.958 54.0967 137.958 52.7051Q137.958 50.7275 138.795 49.2119L138.801 49.2021Q138.835 49.1406 138.87 49.0811C139.478 48.0244 140.31 47.2168 141.366 46.6562C142.422 46.0967 143.606 45.8164 144.918 45.8164C146.23 45.8164 147.414 46.0967 148.47 46.6562C149.526 47.2168 150.358 48.0244 150.966 49.0811C151.574 50.1211 151.878 51.3291 151.878 52.7051C151.878 54.0811 151.566 55.2969 150.942 56.3525C150.334 57.3926 149.494 58.1924 148.422 58.7529C147.366 59.3125 146.182 59.5928 144.87 59.5928ZM174.331 47.9043C174.731 47.2803 175.283 46.7764 175.987 46.3926C176.691 46.0088 177.515 45.8164 178.459 45.8164C179.563 45.8164 180.563 46.0967 181.459 46.6562C182.355 47.2168 183.059 48.0166 183.571 49.0566C184.099 50.0967 184.363 51.3047 184.363 52.6807C184.363 54.0566 184.099 55.2725 183.571 56.3291C183.059 57.3691 182.355 58.1768 181.459 58.7529C180.563 59.3125 179.563 59.5928 178.459 59.5928C177.531 59.5928 176.707 59.4004 175.987 59.0166C175.283 58.6328 174.731 58.1367 174.331 57.5283L174.331 65.7852L170.227 65.7852L170.227 46.0088L174.331 46.0088L174.331 47.9043ZM132.612 48.2402C133.092 47.5049 133.692 46.9287 134.413 46.5127Q134.776 46.2949 135.166 46.1504L135.167 46.1504Q135.937 45.8643 136.812 45.8643L136.812 50.209L135.685 50.209C134.661 50.209 133.893 50.4326 133.38 50.8809C132.869 51.3125 132.612 52.0811 132.612 53.1846L132.612 59.4004L128.508 59.4004L128.508 46.0088L132.612 46.0088L132.612 48.2402ZM167.279 46.0088L167.279 59.4004L163.175 59.4004L163.175 57.5771C162.759 58.1689 162.191 58.6484 161.471 59.0166C160.768 59.3691 159.983 59.5449 159.119 59.5449C158.095 59.5449 157.191 59.3203 156.407 58.873C155.624 58.4092 155.015 57.7451 154.583 56.8809C154.151 56.0166 153.936 55.001 153.936 53.833L153.936 46.0088L158.015 46.0088L158.015 53.2803C158.015 54.1768 158.248 54.873 158.711 55.3691C159.175 55.8643 159.799 56.1123 160.583 56.1123C161.383 56.1123 162.015 55.8643 162.479 55.3691C162.943 54.873 163.175 54.1768 163.175 53.2803L163.175 46.0088L167.279 46.0088ZM144.87 56.041C145.654 56.041 146.318 55.7529 146.862 55.1768C147.422 54.6006 147.702 53.7764 147.702 52.7051C147.702 51.6328 147.43 50.8086 146.886 50.2324C146.358 49.6562 145.702 49.3691 144.918 49.3691C144.118 49.3691 143.454 49.6562 142.926 50.2324C142.398 50.793 142.134 51.6172 142.134 52.7051C142.134 53.7764 142.39 54.6006 142.902 55.1768C143.43 55.7529 144.086 56.041 144.87 56.041ZM121.436 52.7051C121.436 51.6807 121.147 50.873 120.571 50.2803C120.011 49.6885 119.323 49.3926 118.507 49.3926C117.691 49.3926 116.996 49.6885 116.419 50.2803C115.859 50.8564 115.58 51.6562 115.58 52.6807C115.58 53.7051 115.859 54.5205 116.419 55.1289C116.996 55.7207 117.691 56.0166 118.507 56.0166C119.323 56.0166 120.011 55.7207 120.571 55.1289Q120.698 54.998 120.806 54.8545Q121.436 54.0156 121.436 52.7051ZM180.187 52.6807C180.187 51.6562 179.899 50.8564 179.323 50.2803C178.763 49.6885 178.067 49.3926 177.235 49.3926C176.419 49.3926 175.723 49.6885 175.147 50.2803C174.587 50.873 174.307 51.6807 174.307 52.7051C174.307 53.7285 174.587 54.5371 175.147 55.1289C175.723 55.7207 176.419 56.0166 177.235 56.0166C178.051 56.0166 178.747 55.7207 179.323 55.1289C179.899 54.5205 180.187 53.7051 180.187 52.6807ZM107.366 59.5928C106.646 59.5928 106.054 59.3848 105.59 58.9688C105.142 58.5371 104.918 58.0088 104.918 57.3848C104.918 56.7451 105.142 56.209 105.59 55.7764C106.054 55.3447 106.646 55.1289 107.366 55.1289C108.07 55.1289 108.646 55.3447 109.094 55.7764C109.558 56.209 109.79 56.7451 109.79 57.3848C109.79 58.0088 109.558 58.5371 109.094 58.9688C108.646 59.3848 108.07 59.5928 107.366 59.5928Z" clip-rule="evenodd" fill="#FFFFFF" fill-opacity="1.000000" fill-rule="evenodd"/>
	<path id="Subtract" d="M111.216 32L111.216 0L79.2158 0L89.2158 10L101.208 10L101.208 21.9922L111.216 32Z" clip-rule="evenodd" fill="#FAFF09" fill-opacity="1.000000" fill-rule="evenodd"/>
</svg>
