<svg width="128" height="130" viewBox="0 0 128 130" fill="none" xmlns="http://www.w3.org/2000/svg">
<path d="M23.6889 36.4591C23.6889 33.4691 26.0934 31.0646 29.0625 31.0646C32.0525 31.0646 34.457 33.4691 34.457 36.4591C34.457 39.4282 32.0525 41.8328 29.0625 41.8328C26.0934 41.8328 23.6889 39.4073 23.6889 36.4591Z" fill="black"/>
<path d="M53.3594 31.0646C56.3494 31.0646 58.7539 33.4691 58.7539 36.4591C58.7539 39.4282 56.3494 41.8328 53.3594 41.8328C50.3903 41.8328 47.9857 39.4282 47.9857 36.4591C47.9857 33.4691 50.3903 31.0646 53.3594 31.0646Z" fill="black"/>
<path d="M12.0842 0.369965H70.337C76.6515 0.369965 81.7951 5.5136 81.7951 11.8281V60.6509C81.7951 66.9654 76.6515 72.1091 70.337 72.1091H64.3569C64.0224 74.3672 62.1197 76.1236 59.7779 76.2281V87.5609C59.7779 94.9627 55.4079 101.34 49.1351 104.33V108.01C49.1351 110.895 47.6088 113.405 45.3715 114.785V119.217C45.3715 120.346 46.2915 121.245 47.4206 121.245H68.267C69.396 121.245 70.2951 120.325 70.2951 119.217V98.1827C70.2951 87.749 78.7842 79.26 89.2179 79.26C99.6515 79.26 108.141 87.749 108.141 98.1827V117.085C108.141 119.385 110.022 121.266 112.322 121.266H123.195C125.495 121.266 127.377 123.148 127.377 125.448C127.377 127.748 125.495 129.63 123.195 129.63H112.364C105.443 129.63 99.8188 124.005 99.8188 117.085V98.1827C99.8188 92.3491 95.0724 87.6236 89.2597 87.6236C83.426 87.6236 78.7006 92.37 78.7006 98.1827V119.238C78.7006 124.967 74.0379 129.63 68.3088 129.63H47.4624C41.7333 129.63 37.0497 124.967 37.0497 119.238V114.471C35.0842 113.028 33.8088 110.686 33.8088 108.01V104.56C27.2642 101.695 22.6642 95.1509 22.6642 87.54V76.2072C20.3224 76.1027 18.4197 74.3672 18.0851 72.0881H12.1051C5.79058 72.0881 0.646942 66.9445 0.646942 60.63V11.8281C0.62603 5.49269 5.76967 0.369965 12.0842 0.369965ZM39.1197 119.238C39.1197 123.817 42.8415 127.539 47.4415 127.539H68.2879C72.8669 127.539 76.5888 123.817 76.5888 119.238V98.1827C76.5888 91.1991 82.2551 85.5327 89.2388 85.5327C96.2224 85.5327 101.889 91.1991 101.889 98.1827V117.085C101.889 122.855 106.572 127.539 112.343 127.539H123.195C124.345 127.539 125.286 126.598 125.286 125.448C125.286 124.298 124.345 123.357 123.195 123.357H112.364C108.914 123.357 106.091 120.555 106.091 117.085V98.1827C106.091 88.899 98.5433 81.3509 89.2597 81.3509C79.976 81.3509 72.4279 88.899 72.4279 98.1827V119.238C72.4279 121.517 70.5669 123.357 68.3088 123.357H47.4624C45.1833 123.357 43.3224 121.496 43.3224 119.238V115.684C42.7369 115.83 42.1306 115.935 41.4824 115.935C40.6669 115.935 39.8724 115.767 39.1406 115.516V119.238H39.1197ZM35.8788 108.01C35.8788 111.23 38.3879 113.865 41.4824 113.865C44.5769 113.865 47.086 111.251 47.086 108.01V105.166C45.246 105.773 43.2806 106.128 41.2315 106.128C39.3706 106.128 37.5933 105.856 35.8997 105.334V108.01H35.8788ZM24.7342 87.5609C24.7342 96.6563 32.136 104.037 41.2106 104.037C50.306 104.037 57.6869 96.6354 57.6869 87.5609V76.2491H24.7133V87.5609H24.7342ZM22.8524 74.1581C22.9988 74.1581 59.4433 74.1581 59.5897 74.1581C61.116 74.1581 62.3497 72.9245 62.3497 71.3981C62.3497 69.8718 61.116 68.6381 59.5897 68.6381H22.8524C21.326 68.6381 20.0924 69.8718 20.0924 71.3981C20.0924 72.9245 21.326 74.1581 22.8524 74.1581ZM30.7351 46.7881C33.5579 46.7881 35.8788 49.0881 35.8788 51.9318V61.09C38.346 61.3827 44.096 61.3827 46.5633 61.09V51.9318C46.5633 49.1091 48.8633 46.7881 51.7069 46.7881C54.5506 46.7881 56.8506 49.0881 56.8506 51.9318V56.3227C63.0606 51.5136 66.7406 44.1536 66.7406 36.25C66.7406 22.1781 55.3033 10.7409 41.2733 10.7409C27.2015 10.7409 15.7642 22.1781 15.7642 36.25C15.7642 44.1536 19.4442 51.4927 25.6542 56.3227V51.9318C25.6124 49.0881 27.9124 46.7881 30.7351 46.7881ZM27.7033 51.9318V66.5472H33.7878V51.9318C33.7878 50.2591 32.4288 48.8791 30.7351 48.8791C29.0415 48.8791 27.7033 50.2381 27.7033 51.9318ZM35.8788 63.1809V66.5472H46.5633V63.1809C45.2042 63.3272 43.2388 63.39 41.2524 63.39C39.2451 63.39 37.2588 63.3272 35.8788 63.1809ZM48.6542 51.9318V66.5472H54.7388V51.9318C54.7388 50.2591 53.3797 48.8791 51.686 48.8791C49.9924 48.8791 48.6542 50.2381 48.6542 51.9318ZM2.71694 60.6509C2.71694 65.8154 6.91966 70.0181 12.0842 70.0181H18.2106C18.8169 68.0109 20.636 66.5472 22.8315 66.5472H25.5915V58.9363C18.106 53.7718 13.6106 45.3663 13.6106 36.25C13.6106 21.0281 25.9888 8.64997 41.2106 8.64997C56.4115 8.64997 68.7688 21.0281 68.7688 36.25C68.7688 45.3454 64.2942 53.7718 56.7878 58.9363V66.5472H59.5479C61.7433 66.5472 63.5833 68.0109 64.1688 70.0181H70.2951C75.4597 70.0181 79.6624 65.8154 79.6624 60.6509V11.8281C79.6624 6.6636 75.4597 2.46087 70.2951 2.46087H12.0424C6.87785 2.46087 2.67512 6.6636 2.67512 11.8281V60.6509H2.71694Z" fill="black"/>
</svg>
