<svg width="42.000000" height="42.000000" viewBox="0 0 42 42" fill="none" xmlns="http://www.w3.org/2000/svg" xmlns:xlink="http://www.w3.org/1999/xlink">
	<desc>
			Created with Pixso.
	</desc>
	<defs/>
	<path id="Vector" d="M21 8.5127C14.1846 8.5127 8.64355 14.0527 8.63477 20.8691C8.63477 23.2031 9.29102 25.4814 10.5283 27.4404L10.8184 27.9092L9.57227 32.4658L14.25 31.2373L14.7002 31.5098C16.5938 32.6348 18.7686 33.2344 20.9902 33.2344L21 33.2344C27.8066 33.2344 33.4971 27.6934 33.4971 20.8779C33.4971 17.5781 32.0723 14.4746 29.7373 12.1406C27.3936 9.79688 24.2998 8.5127 21 8.5127ZM28.2656 26.1748C27.9561 27.0469 26.4746 27.834 25.7627 27.9375C24.5811 28.1152 23.6621 28.0215 21.3096 27.0098C17.5879 25.3965 15.1504 21.6465 14.9629 21.4033C14.7754 21.1592 13.4434 19.3877 13.4434 17.5596C13.4434 15.7314 14.4004 14.8311 14.7471 14.4561C15.084 14.0811 15.4873 13.9873 15.7402 13.9873C15.9844 13.9873 16.2373 13.9873 16.4531 13.9971C16.6777 14.0059 16.9873 13.9121 17.2871 14.6348C17.5967 15.375 18.3379 17.2031 18.4316 17.3906C18.5254 17.5781 18.5908 17.7939 18.459 18.0371C17.7471 19.4629 16.9873 19.4062 17.3721 20.0625C18.8066 22.5283 20.2402 23.3809 22.4248 24.4785C22.7998 24.666 23.0156 24.6377 23.2314 24.3848C23.4473 24.1406 24.1592 23.2969 24.4033 22.9316C24.6465 22.5566 24.9004 22.6221 25.2373 22.7441C25.5752 22.8652 27.4033 23.7656 27.7783 23.9531C28.1533 24.1406 28.3965 24.2344 28.4902 24.3848C28.5752 24.5625 28.5752 25.3125 28.2656 26.1748ZM37.5 0L4.5 0C2.01562 0 0 2.01562 0 4.5L0 37.5C0 39.9844 2.01562 42 4.5 42L37.5 42C39.9844 42 42 39.9844 42 37.5L42 4.5C42 2.01562 39.9844 0 37.5 0ZM20.9902 35.7373C18.4971 35.7373 16.0498 35.1094 13.8848 33.9277L6 36L8.10938 28.2939C6.80664 26.0439 6.12207 23.4844 6.12207 20.8594C6.13086 12.666 12.7969 6 20.9902 6C24.9658 6 28.6973 7.54688 31.5098 10.3594C34.3125 13.1719 36 16.9033 36 20.8779C36 29.0723 29.1846 35.7373 20.9902 35.7373Z" fill="#000000" fill-opacity="1.000000" fill-rule="nonzero"/>
</svg>
