<svg width="100" height="110" viewBox="0 0 100 110" fill="none" xmlns="http://www.w3.org/2000/svg">
<path d="M99.6417 5.94541L99.5726 2.30087C99.5726 1.9036 99.2963 1.57541 98.9163 1.47178L95.3754 0.608141C95.1163 0.53905 94.8399 0.608141 94.6326 0.780868L79.3981 12.9581L78.949 12.4054C76.8072 9.72814 72.8863 9.29632 70.209 11.4381L65.0099 15.6009C63.5244 16.7927 63.2826 18.969 64.4744 20.4545L66.1326 22.5272L61.5554 26.1891L57.0644 20.5754C56.5117 19.8672 55.6999 19.4354 54.819 19.3318C53.9381 19.2454 53.0572 19.4872 52.349 20.04L48.4626 23.1491L47.5299 21.9918C46.9426 21.2491 46.0963 20.7827 45.1463 20.6791C44.1963 20.5754 43.2635 20.8345 42.5208 21.4391L8.04444 49.0409C-0.799196 56.1054 -2.23283 69.06 4.83171 77.8863C8.87353 82.9472 14.8499 85.5727 20.8781 85.5727C25.369 85.5727 29.9117 84.1045 33.6772 81.0818L34.5581 80.3736L56.0972 107.302C57.0299 108.459 58.3426 109.185 59.8281 109.357C60.0354 109.375 60.2426 109.392 60.4499 109.392C61.7108 109.392 62.9199 108.96 63.9217 108.165L88.3454 88.6645C89.5026 87.7318 90.2281 86.4191 90.4008 84.9336C90.5735 83.4654 90.1417 81.9972 89.209 80.84C88.2763 79.6827 86.9635 78.9572 85.4781 78.7845C84.0099 78.6118 82.5417 79.0436 81.3844 79.9763L69.6563 89.3727L62.5744 80.5118L67.7044 76.4009C68.6372 75.6581 69.1554 74.5527 69.1381 73.3781C69.1208 72.2036 68.5681 71.1154 67.6354 70.39L57.0817 62.3927L68.1881 53.5145C68.9308 52.9272 69.3972 52.0636 69.5008 51.1309C69.6044 50.1809 69.3281 49.2481 68.7408 48.5054L67.8081 47.3481L71.6945 44.239C73.1454 43.0818 73.3699 40.9572 72.2126 39.5063L67.7217 33.8927L72.299 30.2309L73.9572 32.3036C74.6481 33.15 75.6499 33.599 76.669 33.599C77.429 33.599 78.189 33.3572 78.8281 32.8391L84.0272 28.6763C86.7044 26.5345 87.1363 22.6136 84.9944 19.9363L84.0963 18.8136L99.3135 6.63632C99.5381 6.4636 99.659 6.2045 99.6417 5.94541ZM68.8444 91.1172C69.1381 91.4972 69.6908 91.5491 70.0535 91.2554L82.4554 81.3236C83.2499 80.6845 84.2517 80.3909 85.2708 80.5118C86.2899 80.6327 87.2054 81.1336 87.8444 81.9281C88.4835 82.7227 88.7772 83.7245 88.6563 84.7436C88.5354 85.7627 88.0344 86.6781 87.2399 87.3172L62.8508 106.835C62.0563 107.475 61.0544 107.768 60.0354 107.647C59.0163 107.526 58.1008 107.025 57.4617 106.231L35.9226 79.32L50.2417 67.8681L60.6572 80.8745C60.6744 80.8918 60.6744 80.909 60.6744 80.9263C60.6917 80.9436 60.709 80.9436 60.709 80.9609L68.8444 91.1172ZM66.5817 71.7545C67.0999 72.1518 67.3935 72.7391 67.4108 73.3781C67.4281 74.0172 67.1344 74.6218 66.6335 75.0363L61.5035 79.1472L51.6063 66.7627L55.6999 63.4809L66.5817 71.7545ZM67.0999 52.15L49.879 65.9336C49.8617 65.9509 49.8444 65.9509 49.8272 65.9681C49.8099 65.9854 49.8099 66.0027 49.7926 66.02L34.2126 78.4909C34.1954 78.5081 34.1781 78.5081 34.1608 78.5081C34.1435 78.5254 34.1435 78.5427 34.1263 78.56L32.6235 79.7691C24.5399 86.2463 12.6735 84.9336 6.19626 76.8327C-0.281014 68.7318 1.03171 56.8827 9.13262 50.4054L43.609 22.8036C43.9372 22.5445 44.3344 22.4063 44.749 22.4063C44.8181 22.4063 44.8872 22.4063 44.9563 22.4236C45.4399 22.4754 45.889 22.7172 46.1826 23.0972L65.9254 47.7454L67.3935 49.5763C67.7044 49.9563 67.8426 50.44 67.7908 50.9236C67.7217 51.4072 67.4799 51.8391 67.0999 52.15ZM70.8654 40.5945C71.4354 41.3027 71.3144 42.3218 70.6063 42.8918L66.7199 46.0009L49.5335 24.5309L53.4199 21.4218C53.7654 21.1454 54.1972 21.0245 54.629 21.0763C55.0608 21.1281 55.4581 21.3354 55.7172 21.6809L60.709 27.9336C60.7263 27.9509 60.7263 27.9681 60.7263 27.9681C60.7435 27.9854 60.7435 27.9854 60.7608 27.9854L65.8045 34.2727C65.8217 34.29 65.8217 34.3072 65.8217 34.3245C65.839 34.3418 65.839 34.3418 65.8563 34.359L70.8654 40.5945ZM66.6508 32.5454L62.6435 27.5363L67.2208 23.8745L71.2281 28.8836L66.6508 32.5454ZM82.939 27.3291L77.7399 31.4918C76.9972 32.0963 75.8917 31.9754 75.3045 31.2154L65.839 19.3836C65.2344 18.6409 65.3554 17.5527 66.1154 16.9481L71.3144 12.7854C72.1435 12.1291 73.1281 11.8009 74.1126 11.8009C75.4254 11.8009 76.7381 12.3709 77.619 13.4936L83.6472 21.0245C85.1844 22.9591 84.8735 25.7918 82.939 27.3291ZM83.0081 17.4663L80.4863 14.3054L95.3754 2.38723L97.8454 2.99178L97.8972 5.54814L83.0081 17.4663Z" fill="black"/>
<path d="M43.6952 31.889C43.4016 31.509 42.8488 31.4572 42.4861 31.7509L30.2916 41.5099C29.9116 41.8036 29.8597 42.3563 30.1534 42.719C30.3261 42.9263 30.5679 43.0472 30.827 43.0472C31.017 43.0472 31.207 42.9781 31.3625 42.8572L43.557 33.0981C43.9198 32.8045 43.9888 32.2518 43.6952 31.889Z" fill="black"/>
<path d="M48.5487 37.9518C48.2551 37.5718 47.7024 37.52 47.3396 37.8136L35.1451 47.5727C34.7651 47.8663 34.7133 48.4191 35.0069 48.7818C35.1796 48.9891 35.4214 49.11 35.6805 49.11C35.8705 49.11 36.0605 49.0409 36.216 48.92L48.4105 39.1609C48.7733 38.8672 48.8424 38.3318 48.5487 37.9518Z" fill="black"/>
<path d="M53.4022 44.0145C53.1086 43.6345 52.5559 43.5827 52.1931 43.8763L39.9986 53.6354C39.6186 53.9291 39.5668 54.4818 39.8604 54.8445C40.0331 55.0518 40.275 55.1727 40.5341 55.1727C40.7241 55.1727 40.9141 55.1036 41.0695 54.9827L53.2641 45.2236C53.6268 44.93 53.6959 44.3945 53.4022 44.0145Z" fill="black"/>
<path d="M57.031 49.9564L44.8365 59.7155C44.4565 60.0091 44.4047 60.5618 44.6983 60.9245C44.871 61.1318 45.1129 61.2527 45.3719 61.2527C45.5619 61.2527 45.7519 61.1836 45.9074 61.0627L58.1019 51.3036C58.4819 51.01 58.5338 50.4573 58.2401 50.0945C57.9465 49.7145 57.411 49.6627 57.031 49.9564Z" fill="black"/>
<path d="M22.294 54.2573C19.444 53.9291 16.663 54.7409 14.4349 56.52C12.2067 58.2991 10.8076 60.8382 10.4967 63.6882C10.1858 66.5209 10.9976 69.3018 12.7594 71.53C14.8667 74.1727 17.993 75.5546 21.1367 75.5546C23.4685 75.5546 25.8176 74.7946 27.7867 73.2227C30.0149 71.4437 31.414 68.8873 31.7249 66.0546C32.0358 63.2218 31.224 60.4237 29.4449 58.1955C27.6658 55.9673 25.1267 54.5855 22.294 54.2573ZM14.124 70.4418C12.6385 68.5764 11.9649 66.2446 12.224 63.8782C12.483 61.4946 13.6576 59.37 15.523 57.8673C17.1121 56.5891 19.064 55.9155 21.0849 55.9155C21.1194 55.9155 21.154 55.9155 21.1885 55.9155L19.2367 73.5682C17.2849 73.1537 15.454 72.1173 14.124 70.4418ZM29.9976 65.8646C29.7385 68.2482 28.564 70.3727 26.6985 71.8755C25.0058 73.24 22.9503 73.8273 20.9294 73.7928L22.8812 56.1573C24.9194 56.5718 26.7503 57.6427 28.063 59.2837C29.583 61.1491 30.274 63.4809 29.9976 65.8646Z" fill="black"/>
</svg>
