<svg width="42.000000" height="42.000000" viewBox="0 0 42 42" fill="none" xmlns="http://www.w3.org/2000/svg" xmlns:xlink="http://www.w3.org/1999/xlink">
	<desc>
			Created with Pixso.
	</desc>
	<defs/>
	<path id="Vector" d="M20.9941 13.9971C17.1382 13.9971 13.9917 17.1436 13.9917 21C13.9917 24.8564 17.1382 28.0029 20.9941 28.0029C24.8506 28.0029 27.9971 24.8564 27.9971 21C27.9971 17.1436 24.8506 13.9971 20.9941 13.9971ZM41.9976 21C41.9976 18.0996 42.0239 15.2266 41.8608 12.332C41.6982 8.96973 40.9312 5.98535 38.4727 3.52637C36.0088 1.0625 33.0298 0.300781 29.668 0.137695C26.7681 -0.0244141 23.894 0.00195312 20.9995 0.00195312C18.0996 0.00195312 15.2261 -0.0244141 12.3315 0.137695C8.96924 0.300781 5.98535 1.06836 3.52686 3.52637C1.06299 5.99023 0.300781 8.96973 0.138184 12.332C-0.0249023 15.2314 0.00146484 18.1055 0.00146484 21C0.00146484 23.8945 -0.0249023 26.7734 0.138184 29.668C0.300781 33.0303 1.06787 36.0146 3.52686 38.4736C5.99072 40.9375 8.96924 41.6992 12.3315 41.8623C15.2314 42.0244 18.105 41.998 20.9995 41.998C23.8994 41.998 26.7729 42.0244 29.668 41.8623C33.0298 41.6992 36.0142 40.9316 38.4727 38.4736C40.9365 36.0098 41.6982 33.0303 41.8608 29.668C42.0293 26.7734 41.9976 23.9004 41.9976 21ZM20.9941 31.7754C15.0317 31.7754 10.2197 26.9629 10.2197 21C10.2197 15.0371 15.0317 10.2246 20.9941 10.2246C26.957 10.2246 31.769 15.0371 31.769 21C31.769 26.9629 26.957 31.7754 20.9941 31.7754ZM32.2104 12.2998C30.8184 12.2998 29.6938 11.1758 29.6938 9.7832C29.6938 8.3916 30.8184 7.26758 32.2104 7.26758C33.6025 7.26758 34.7271 8.3916 34.7271 9.7832C34.7275 10.1143 34.6626 10.4414 34.5361 10.7471C34.4097 11.0527 34.2246 11.3301 33.9907 11.5645C33.7568 11.7979 33.4795 11.9834 33.1738 12.1094C32.8687 12.2354 32.541 12.3008 32.2104 12.2998Z" fill="#000000" fill-opacity="1.000000" fill-rule="nonzero"/>
</svg>
