<svg width="41.000000" height="41.000000" viewBox="0 0 41 41" fill="none" xmlns="http://www.w3.org/2000/svg" xmlns:xlink="http://www.w3.org/1999/xlink">
	<desc>
			Created with Pixso.
	</desc>
	<defs/>
	<rect id="Rectangle 166" rx="5.000000" width="41.000000" height="41.000000" fill="#000000" fill-opacity="1.000000"/>
	<path id="Vector" d="M21.0811 7.02246C22.5244 7 23.96 7.01367 25.3936 7C25.4805 8.72266 26.0879 10.4766 27.3242 11.6943C28.5576 12.9424 30.3027 13.5137 32 13.7061L32 18.2373C30.4092 18.1836 28.8105 17.8457 27.3672 17.1475C26.7383 16.8574 26.1523 16.4834 25.5791 16.1016C25.5713 19.3887 25.5928 22.6719 25.5586 25.9453C25.4727 27.5186 24.9639 29.084 24.0664 30.3799C22.624 32.5371 20.1201 33.9443 17.5479 33.9883C15.9697 34.0801 14.3936 33.6416 13.0498 32.833C10.8213 31.4932 9.25391 29.04 9.02539 26.4072C8.99707 25.8496 8.99219 25.291 9.0127 24.7334C9.21094 22.5928 10.249 20.5449 11.8604 19.1514C13.6875 17.5293 16.2461 16.7559 18.6426 17.2129C18.6641 18.8799 18.5996 20.5449 18.5996 22.2109C17.5049 21.8496 16.2256 21.9512 15.2695 22.6289C14.5693 23.0986 14.041 23.791 13.7646 24.5977C13.5361 25.168 13.6016 25.8018 13.6143 26.4072C13.877 28.2539 15.6172 29.8057 17.4756 29.6377C18.708 29.624 19.8877 28.8945 20.5303 27.8271C20.7373 27.4531 20.9707 27.0713 20.9824 26.6318C21.0908 24.6191 21.0479 22.6152 21.0615 20.6025C21.0703 16.0674 21.0479 11.5449 21.082 7.02344L21.0811 7.02246Z" fill="#FFFFFF" fill-opacity="1.000000" fill-rule="nonzero"/>
</svg>
