<svg width="134" height="82" viewBox="0 0 134 82" fill="none" xmlns="http://www.w3.org/2000/svg">
<path d="M1.14865 0H22.3166H66.1162C66.7467 0 67.2422 0.49542 67.2422 1.12595V19.7267H88.5002C89.1307 19.7267 89.6261 20.2221 89.6261 20.8527V39.4534H109.668C110.299 39.4534 110.794 39.9489 110.794 40.5794V59.1802H132.683C133.313 59.1802 133.809 59.6756 133.809 60.3061V80.0328C133.809 80.6634 133.313 81.1588 132.683 81.1588H88.9956H88.7479H45.0609H1.12613C0.49559 81.1588 0.000167847 80.6634 0.000167847 80.0328V60.3061V40.5794V20.8527V1.12595C0.0226898 0.517939 0.540634 0 1.14865 0ZM45.0834 59.2027H64.7426V41.7279H44.9483H44.7006H23.4425V59.2027H45.0834ZM87.6445 61.4546H46.2093V78.9294H87.6445V61.4546ZM2.2746 22.0012V39.476H22.3166H43.5746V22.0012H2.2746ZM21.1906 59.2027V41.7279H2.2746V59.2027H21.1906ZM2.2746 19.7492H21.1906V2.27443H2.2746V19.7492ZM64.9903 2.25191H23.4425V19.7267H44.7006H44.9483H64.9903V2.25191ZM87.3742 22.0012H46.0742V39.476H65.8685H87.3742V22.0012ZM131.557 61.4546H90.1216V78.9294H131.557V61.4546ZM89.0181 59.2027H108.542V41.7279H88.5002H66.9945V59.2027H88.7704H89.0181ZM43.9574 78.9519V61.4771H22.3166H21.2132H2.2746V78.9519H43.9574Z" fill="black"/>
</svg>
