<svg width="87" height="87" viewBox="0 0 87 87" fill="none" xmlns="http://www.w3.org/2000/svg">
<path fill-rule="evenodd" clip-rule="evenodd" d="M29.373 83.0245H81.2308C82.6647 83.0245 84.0375 82.4531 85.0473 81.4396C86.0608 80.4262 86.625 79.0534 86.6214 77.6195L86.4669 18.9802C86.4597 16.0082 84.0447 13.604 81.0727 13.604L35.8848 13.622C34.0628 6.04993 26.9256 0.361023 18.3617 0.361023C8.77359 0.361023 0.96797 7.49821 0.42172 16.4287C0.39297 16.5581 0.375 16.691 0.375 16.8312C0.375 16.8312 0.375 69.4006 0.375 69.5479C0.375 78.9384 8.39984 86.6182 18.3473 86.6182C22.5089 86.6182 26.3327 85.2742 29.373 83.0245ZM27.7019 79.7793C30.7745 77.314 32.7259 73.652 32.7259 69.5479C32.7259 62.0801 26.2572 56.0713 18.3473 56.0713C10.4411 56.0713 3.96875 62.0801 3.96875 69.5479C3.96875 77.0157 10.4411 83.0245 18.3473 83.0245C21.862 83.0245 25.0928 81.8385 27.5977 79.862C27.63 79.8332 27.6659 79.8081 27.7019 79.7793ZM65.0697 17.2049V79.4307H81.2308C81.7088 79.4307 82.1688 79.2402 82.503 78.9024C82.8408 78.5646 83.0312 78.1082 83.0277 77.6302L82.8731 18.991C82.8695 17.9991 82.0645 17.1977 81.0763 17.1977L65.0697 17.2049ZM61.4759 17.2049L47.1009 17.2121V79.4307H61.4759V17.2049ZM32.9991 79.4307H43.5072V17.2121L36.3341 17.2157C36.3341 17.2876 36.3197 68.7537 36.3197 69.5479C36.3197 73.2243 35.0906 76.6384 32.9991 79.4307ZM18.3617 62.3352C14.4014 62.3352 11.185 65.5517 11.185 69.512C11.185 73.4723 14.4014 76.6851 18.3617 76.6851C22.322 76.6851 25.5384 73.4723 25.5384 69.512C25.5384 65.5517 22.322 62.3352 18.3617 62.3352ZM18.3617 65.929C20.3383 65.929 21.9447 67.5318 21.9447 69.512C21.9447 71.4885 20.3383 73.0913 18.3617 73.0913C16.3852 73.0913 14.7787 71.4885 14.7787 69.512C14.7787 67.5318 16.3852 65.929 18.3617 65.929ZM32.7403 59.3309C32.7403 59.3309 32.7403 17.4888 32.7403 17.4313C32.7403 9.96352 26.2716 3.95477 18.3617 3.95477C10.4555 3.95477 3.98312 9.96352 3.98312 17.4313C3.98312 17.5068 3.97594 59.3057 3.97594 59.3057C7.24984 55.1657 12.4608 52.4776 18.3473 52.4776C24.2447 52.4776 29.4664 55.1765 32.7403 59.3309Z" fill="#333333"/>
</svg>
