<svg width="98" height="100" viewBox="0 0 98 100" fill="none" xmlns="http://www.w3.org/2000/svg">
<path d="M11.6658 88.7562C11.7267 87.0093 13.5345 85.4046 14.6314 83.9827C16.2564 81.8702 15.972 79.3718 15.972 76.8734C15.4642 77.3812 14.9564 77.889 14.4486 78.3968C15.9111 78.3968 17.3736 78.3968 18.8361 78.3968C18.3283 77.889 17.8205 77.3812 17.3126 76.8734C17.3126 78.9859 17.0689 81.1999 18.0642 83.1296C18.4705 83.9218 19.1814 84.653 19.7298 85.364C20.2376 86.0343 20.9486 86.9077 21.2939 87.4562C21.6798 88.0859 21.6392 88.8374 21.6392 89.528C21.6392 90.5437 21.6392 91.5593 21.6392 92.5749C21.6392 94.2609 21.6392 95.9265 21.6392 97.6124C22.147 97.1046 22.6548 96.5968 23.1626 96.089C18.8158 96.089 14.4892 96.089 10.1423 96.089C8.17201 96.089 8.17201 99.1358 10.1423 99.1358C14.4892 99.1358 18.8158 99.1358 23.1626 99.1358C23.9955 99.1358 24.6861 98.4452 24.6861 97.6124C24.6861 96.0077 24.6861 94.3827 24.6861 92.778C24.6861 91.0109 24.8486 89.1624 24.5236 87.4155C24.3001 86.2374 23.5283 85.3234 22.8376 84.4093C22.208 83.5968 21.5783 82.764 20.9283 81.9515C20.0345 80.7937 20.3798 78.4374 20.3798 76.8734C20.3798 76.0405 19.6892 75.3499 18.8564 75.3499C17.3939 75.3499 15.9314 75.3499 14.4689 75.3499C13.6361 75.3499 12.9455 76.0405 12.9455 76.8734C12.9455 77.7671 12.9455 78.6609 12.9455 79.5343C12.9455 80.5093 12.8236 81.403 12.3158 82.053C10.7314 84.0843 8.74076 86.0343 8.6392 88.7562C8.53764 90.7265 11.5845 90.7265 11.6658 88.7562Z" fill="black"/>
<path d="M63.2387 65.864C63.2387 75.8171 63.2387 85.7499 63.2387 95.7031C63.2387 96.3328 63.2387 96.9624 63.2387 97.6124C63.7465 97.1046 64.2543 96.5968 64.7621 96.089C54.8293 96.089 44.8762 96.089 34.9434 96.089C34.3746 96.089 33.8059 96.089 33.2168 96.089C33.7246 96.5968 34.2324 97.1046 34.7402 97.6124C34.7402 87.6593 34.7402 77.7265 34.7402 67.7734C34.7402 67.1437 34.7402 66.514 34.7402 65.864C34.2324 66.3718 33.7246 66.8796 33.2168 67.3875C43.1496 67.3875 53.1027 67.3875 63.0356 67.3875C63.6043 67.3875 64.1731 67.3875 64.7621 67.3875C66.7324 67.3875 66.7324 64.3406 64.7621 64.3406C54.8293 64.3406 44.8762 64.3406 34.9434 64.3406C34.3746 64.3406 33.8059 64.3406 33.2168 64.3406C32.384 64.3406 31.6934 65.0312 31.6934 65.864C31.6934 75.8171 31.6934 85.7499 31.6934 95.7031C31.6934 96.3328 31.6934 96.9624 31.6934 97.6124C31.6934 98.4453 32.384 99.1359 33.2168 99.1359C43.1496 99.1359 53.1027 99.1359 63.0356 99.1359C63.6043 99.1359 64.1731 99.1359 64.7621 99.1359C65.5949 99.1359 66.2856 98.4453 66.2856 97.6124C66.2856 87.6593 66.2856 77.7265 66.2856 67.7734C66.2856 67.1437 66.2856 66.514 66.2856 65.864C66.2856 63.914 63.2387 63.914 63.2387 65.864Z" fill="black"/>
<path d="M96.3285 96.089C86.3957 96.089 76.4426 96.089 66.5098 96.089C65.941 96.089 65.3723 96.089 64.7832 96.089C65.291 96.5968 65.7988 97.1046 66.3066 97.6124C66.3066 87.6593 66.3066 77.7265 66.3066 67.7734C66.3066 67.1437 66.3066 66.514 66.3066 65.864C65.7988 66.3718 65.291 66.8796 64.7832 67.3875C74.716 67.3875 84.6691 67.3875 94.602 67.3875C95.1707 67.3875 95.7395 67.3875 96.3285 67.3875C95.8207 66.8796 95.3129 66.3718 94.8051 65.864C94.8051 75.8171 94.8051 85.7499 94.8051 95.7031C94.8051 96.3328 94.8051 96.9624 94.8051 97.6124C94.8051 99.5828 97.852 99.5828 97.852 97.6124C97.852 87.6593 97.852 77.7265 97.852 67.7734C97.852 67.1437 97.852 66.514 97.852 65.864C97.852 65.0312 97.1613 64.3406 96.3285 64.3406C86.3957 64.3406 76.4426 64.3406 66.5098 64.3406C65.941 64.3406 65.3723 64.3406 64.7832 64.3406C63.9504 64.3406 63.2598 65.0312 63.2598 65.864C63.2598 75.8171 63.2598 85.7499 63.2598 95.7031C63.2598 96.3328 63.2598 96.9624 63.2598 97.6124C63.2598 98.4453 63.9504 99.1359 64.7832 99.1359C74.716 99.1359 84.6691 99.1359 94.602 99.1359C95.1707 99.1359 95.7395 99.1359 96.3285 99.1359C98.2785 99.1359 98.2785 96.089 96.3285 96.089Z" fill="black"/>
<path d="M31.6938 34.1361C31.6938 44.0892 31.6938 54.022 31.6938 63.9751C31.6938 64.6048 31.6938 65.2345 31.6938 65.8845C32.2016 65.3767 32.7094 64.8689 33.2172 64.3611C23.2844 64.3611 13.3313 64.3611 3.39844 64.3611C2.82969 64.3611 2.26094 64.3611 1.67188 64.3611C2.17969 64.8689 2.6875 65.3767 3.19531 65.8845C3.19531 55.9314 3.19531 45.9986 3.19531 36.0455C3.19531 35.4158 3.19531 34.7861 3.19531 34.1361C2.6875 34.6439 2.17969 35.1517 1.67188 35.6595C11.6047 35.6595 21.5578 35.6595 31.4906 35.6595C32.0594 35.6595 32.6281 35.6595 33.2172 35.6595C35.1875 35.6595 35.1875 32.6126 33.2172 32.6126C23.2844 32.6126 13.3313 32.6126 3.39844 32.6126C2.82969 32.6126 2.26094 32.6126 1.67188 32.6126C0.839063 32.6126 0.148438 33.3033 0.148438 34.1361C0.148438 44.0892 0.148438 54.022 0.148438 63.9751C0.148438 64.6048 0.148438 65.2345 0.148438 65.8845C0.148438 66.7173 0.839063 67.408 1.67188 67.408C11.6047 67.408 21.5578 67.408 31.4906 67.408C32.0594 67.408 32.6281 67.408 33.2172 67.408C34.05 67.408 34.7406 66.7173 34.7406 65.8845C34.7406 55.9314 34.7406 45.9986 34.7406 36.0455C34.7406 35.4158 34.7406 34.7861 34.7406 34.1361C34.7406 32.1658 31.6938 32.1658 31.6938 34.1361Z" fill="black"/>
<path d="M33.2387 32.6125C23.3059 32.6125 13.3527 32.6125 3.41992 32.6125C2.85117 32.6125 2.28242 32.6125 1.69336 32.6125C2.20117 33.1204 2.70898 33.6282 3.2168 34.136C3.2168 24.1829 3.2168 14.25 3.2168 4.29692C3.2168 3.66723 3.2168 3.03754 3.2168 2.38754C2.70898 2.89536 2.20117 3.40317 1.69336 3.91098C11.6262 3.91098 21.5793 3.91098 31.5121 3.91098C32.0809 3.91098 32.6496 3.91098 33.2387 3.91098C32.7309 3.40317 32.223 2.89536 31.7152 2.38754C31.7152 12.3407 31.7152 22.2735 31.7152 32.2266C31.7152 32.8563 31.7152 33.486 31.7152 34.136C31.7152 36.1063 34.7621 36.1063 34.7621 34.136C34.7621 24.1829 34.7621 14.25 34.7621 4.29692C34.7621 3.66723 34.7621 3.03754 34.7621 2.38754C34.7621 1.55473 34.0715 0.864105 33.2387 0.864105C23.3059 0.864105 13.3527 0.864105 3.41992 0.864105C2.85117 0.864105 2.28242 0.864105 1.69336 0.864105C0.860547 0.864105 0.169922 1.55473 0.169922 2.38754C0.169922 12.3407 0.169922 22.2735 0.169922 32.2266C0.169922 32.8563 0.169922 33.486 0.169922 34.136C0.169922 34.9688 0.860547 35.6594 1.69336 35.6594C11.6262 35.6594 21.5793 35.6594 31.5121 35.6594C32.0809 35.6594 32.6496 35.6594 33.2387 35.6594C35.1887 35.6594 35.1887 32.6125 33.2387 32.6125Z" fill="black"/>
<path d="M64.7816 64.3406C54.8488 64.3406 44.8957 64.3406 34.9629 64.3406C34.3941 64.3406 33.8254 64.3406 33.2363 64.3406C33.7441 64.8484 34.252 65.3562 34.7598 65.864C34.7598 55.9109 34.7598 45.978 34.7598 36.0249C34.7598 35.3952 34.7598 34.7655 34.7598 34.1155C34.252 34.6234 33.7441 35.1312 33.2363 35.639C43.1691 35.639 53.1223 35.639 63.0551 35.639C63.6238 35.639 64.1926 35.639 64.7816 35.639C64.2738 35.1312 63.766 34.6234 63.2582 34.1155C63.2582 44.0687 63.2582 54.0015 63.2582 63.9546C63.2582 64.5843 63.2582 65.214 63.2582 65.864C63.2582 67.8343 66.3051 67.8343 66.3051 65.864C66.3051 55.9109 66.3051 45.978 66.3051 36.0249C66.3051 35.3952 66.3051 34.7655 66.3051 34.1155C66.3051 33.2827 65.6145 32.5921 64.7816 32.5921C54.8488 32.5921 44.8957 32.5921 34.9629 32.5921C34.3941 32.5921 33.8254 32.5921 33.2363 32.5921C32.4035 32.5921 31.7129 33.2827 31.7129 34.1155C31.7129 44.0687 31.7129 54.0015 31.7129 63.9546C31.7129 64.5843 31.7129 65.214 31.7129 65.864C31.7129 66.6968 32.4035 67.3874 33.2363 67.3874C43.1691 67.3874 53.1223 67.3874 63.0551 67.3874C63.6238 67.3874 64.1926 67.3874 64.7816 67.3874C66.7316 67.3874 66.7316 64.3406 64.7816 64.3406Z" fill="black"/>
<path d="M20.6438 57.8406C20.6438 60.5218 20.6438 63.2031 20.6438 65.8843C21.1516 65.3765 21.6594 64.8687 22.1672 64.3609C15.3422 64.3609 8.49687 64.3609 1.67188 64.3609C2.17969 64.8687 2.6875 65.3765 3.19531 65.8843C3.19531 63.2031 3.19531 60.5218 3.19531 57.8406C2.6875 58.3484 2.17969 58.8562 1.67188 59.364C8.49687 59.364 15.3422 59.364 22.1672 59.364C24.1375 59.364 24.1375 56.3171 22.1672 56.3171C15.3422 56.3171 8.49687 56.3171 1.67188 56.3171C0.839063 56.3171 0.148438 57.0078 0.148438 57.8406C0.148438 60.5218 0.148438 63.2031 0.148438 65.8843C0.148438 66.7171 0.839063 67.4077 1.67188 67.4077C8.49687 67.4077 15.3422 67.4077 22.1672 67.4077C23 67.4077 23.6906 66.7171 23.6906 65.8843C23.6906 63.2031 23.6906 60.5218 23.6906 57.8406C23.6906 55.8703 20.6438 55.8703 20.6438 57.8406Z" fill="black"/>
<path d="M16.6422 56.3172C11.6453 56.3172 6.66875 56.3172 1.67188 56.3172C2.17969 56.825 2.6875 57.3328 3.19531 57.8406C3.19531 55.1594 3.19531 52.4781 3.19531 49.7969C2.6875 50.3047 2.17969 50.8125 1.67188 51.3203C6.66875 51.3203 11.6453 51.3203 16.6422 51.3203C16.1344 50.8125 15.6266 50.3047 15.1187 49.7969C15.1187 52.4781 15.1187 55.1594 15.1187 57.8406C15.1187 59.8109 18.1656 59.8109 18.1656 57.8406C18.1656 55.1594 18.1656 52.4781 18.1656 49.7969C18.1656 48.9641 17.475 48.2734 16.6422 48.2734C11.6453 48.2734 6.66875 48.2734 1.67188 48.2734C0.839063 48.2734 0.148438 48.9641 0.148438 49.7969C0.148438 52.4781 0.148438 55.1594 0.148438 57.8406C0.148438 58.6734 0.839063 59.3641 1.67188 59.3641C6.66875 59.3641 11.6453 59.3641 16.6422 59.3641C18.6125 59.3641 18.6125 56.3172 16.6422 56.3172Z" fill="black"/>
<path d="M23.1621 96.0892C18.8152 96.0892 14.4887 96.0892 10.1418 96.0892C8.17148 96.0892 8.17148 99.1361 10.1418 99.1361C14.4887 99.1361 18.8152 99.1361 23.1621 99.1361C25.1324 99.1361 25.1324 96.0892 23.1621 96.0892Z" fill="black"/>
<path d="M31.6938 65.864C31.6938 75.8171 31.6938 85.7499 31.6938 95.7031C31.6938 96.3328 31.6938 96.9624 31.6938 97.6124C32.2016 97.1046 32.7094 96.5968 33.2172 96.089C23.2844 96.089 13.3313 96.089 3.39844 96.089C2.82969 96.089 2.26094 96.089 1.67188 96.089C2.17969 96.5968 2.6875 97.1046 3.19531 97.6124C3.19531 87.6593 3.19531 77.7265 3.19531 67.7734C3.19531 67.1437 3.19531 66.514 3.19531 65.864C2.6875 66.3718 2.17969 66.8796 1.67188 67.3875C11.6047 67.3875 21.5578 67.3875 31.4906 67.3875C32.0594 67.3875 32.6281 67.3875 33.2172 67.3875C35.1875 67.3875 35.1875 64.3406 33.2172 64.3406C23.2844 64.3406 13.3313 64.3406 3.39844 64.3406C2.82969 64.3406 2.26094 64.3406 1.67188 64.3406C0.839063 64.3406 0.148438 65.0312 0.148438 65.864C0.148438 75.8171 0.148438 85.7499 0.148438 95.7031C0.148438 96.3328 0.148438 96.9624 0.148438 97.6124C0.148438 98.4453 0.839063 99.1359 1.67188 99.1359C11.6047 99.1359 21.5578 99.1359 31.4906 99.1359C32.0594 99.1359 32.6281 99.1359 33.2172 99.1359C34.05 99.1359 34.7406 98.4453 34.7406 97.6124C34.7406 87.6593 34.7406 77.7265 34.7406 67.7734C34.7406 67.1437 34.7406 66.514 34.7406 65.864C34.7406 63.914 31.6938 63.914 31.6938 65.864Z" fill="black"/>
<path d="M8.61914 88.7564C8.61914 91.7017 8.61914 94.6673 8.61914 97.6126C8.61914 99.5829 11.666 99.5829 11.666 97.6126C11.666 94.6673 11.666 91.7017 11.666 88.7564C11.666 86.8064 8.61914 86.8064 8.61914 88.7564Z" fill="black"/>
<path d="M56.6984 64.3407C51.5594 64.3407 46.4203 64.3407 41.2812 64.3407C41.7891 64.8485 42.2969 65.3563 42.8047 65.8641C42.8047 60.2579 42.8047 54.6516 42.8047 49.0251C42.2969 49.5329 41.7891 50.0407 41.2812 50.5485C46.4203 50.5485 51.5594 50.5485 56.6984 50.5485C56.1906 50.0407 55.6828 49.5329 55.175 49.0251C55.175 54.6313 55.175 60.2375 55.175 65.8641C55.175 67.8344 58.2219 67.8344 58.2219 65.8641C58.2219 60.2579 58.2219 54.6516 58.2219 49.0251C58.2219 48.1922 57.5312 47.5016 56.6984 47.5016C51.5594 47.5016 46.4203 47.5016 41.2812 47.5016C40.4484 47.5016 39.7578 48.1922 39.7578 49.0251C39.7578 54.6313 39.7578 60.2375 39.7578 65.8641C39.7578 66.6969 40.4484 67.3875 41.2812 67.3875C46.4203 67.3875 51.5594 67.3875 56.6984 67.3875C58.6687 67.3875 58.6687 64.3407 56.6984 64.3407Z" fill="black"/>
<path d="M47.4766 49.0455C47.4766 54.6517 47.4766 60.258 47.4766 65.8845C47.4766 67.8549 50.5234 67.8549 50.5234 65.8845C50.5234 60.2783 50.5234 54.672 50.5234 49.0455C50.5234 47.0752 47.4766 47.0752 47.4766 49.0455Z" fill="black"/>
<path d="M41.302 58.9782C46.441 58.9782 51.5801 58.9782 56.7191 58.9782C58.6894 58.9782 58.6894 55.9313 56.7191 55.9313C51.5801 55.9313 46.441 55.9313 41.302 55.9313C39.3316 55.9313 39.3316 58.9782 41.302 58.9782Z" fill="black"/>
<path d="M52.3113 47.5218C51.2144 47.5218 50.0972 47.5218 49.0004 47.5218C49.5082 48.0296 50.016 48.5374 50.5238 49.0452C50.5238 48.2531 50.5238 47.4812 50.5238 46.689C50.5238 45.8765 50.3816 45.0031 51.3566 44.739C52.1285 44.5359 53.0629 44.7796 53.2863 45.5718C53.4894 46.3437 53.2457 47.4609 52.3113 47.5218C50.3613 47.6234 50.341 50.6702 52.3113 50.5687C54.8707 50.4265 56.3332 48.4968 56.3332 46.039C56.3332 43.6015 54.6676 41.6921 52.1488 41.6921C49.8535 41.6921 47.6191 42.8703 47.4769 45.4296C47.416 46.6281 47.4566 47.8468 47.4566 49.0452C47.4566 49.8781 48.1472 50.5687 48.9801 50.5687C50.0769 50.5687 51.1941 50.5687 52.291 50.5687C54.2816 50.5687 54.2816 47.5218 52.3113 47.5218Z" fill="black"/>
<path d="M49.0215 47.5219C47.9652 47.5219 46.8887 47.5219 45.8324 47.5219C44.7559 47.5219 44.2887 45.9172 44.9387 45.125C45.5887 44.3328 47.4981 44.6172 47.4981 45.775C47.4981 46.8719 47.4981 47.9688 47.4981 49.0453C47.4981 51.0156 50.5449 51.0156 50.5449 49.0453C50.5449 47.4609 50.8699 45.3688 50.1184 43.9063C48.7574 41.2859 45.1012 41.0422 42.9684 42.7688C41.8918 43.6625 41.709 45.0844 41.709 46.3844C41.709 47.9281 42.4199 49.1875 43.6996 50.0203C45.1215 50.9547 47.4371 50.5688 49.0418 50.5688C50.9918 50.5688 50.9918 47.5219 49.0215 47.5219Z" fill="black"/>
<path d="M96.3285 96.089C89.4629 96.089 82.6176 96.089 75.752 96.089C76.2598 96.5968 76.7676 97.1046 77.2754 97.6124C77.2754 89.914 77.2754 82.1953 77.2754 74.4968C76.7676 75.0046 76.2598 75.5125 75.752 76.0203C82.6176 76.0203 89.4629 76.0203 96.3285 76.0203C95.8207 75.5125 95.3129 75.0046 94.8051 74.4968C94.8051 82.1953 94.8051 89.914 94.8051 97.6124C94.8051 99.5828 97.852 99.5828 97.852 97.6124C97.852 89.914 97.852 82.1953 97.852 74.4968C97.852 73.664 97.1613 72.9734 96.3285 72.9734C89.4629 72.9734 82.6176 72.9734 75.752 72.9734C74.9191 72.9734 74.2285 73.664 74.2285 74.4968C74.2285 82.1953 74.2285 89.914 74.2285 97.6124C74.2285 98.4453 74.9191 99.1359 75.752 99.1359C82.6176 99.1359 89.4629 99.1359 96.3285 99.1359C98.2785 99.1359 98.2785 96.089 96.3285 96.089Z" fill="black"/>
<path d="M84.5059 74.5171C84.5059 82.2156 84.5059 89.914 84.5059 97.6328C84.5059 99.6031 87.5527 99.6031 87.5527 97.6328C87.5527 89.9343 87.5527 82.2359 87.5527 74.5171C87.5527 72.5468 84.5059 72.5468 84.5059 74.5171Z" fill="black"/>
<path d="M75.752 96.089C72.0957 96.089 68.4395 96.089 64.7832 96.089C65.291 96.5968 65.7988 97.1046 66.3066 97.6124C66.3066 92.3312 66.3066 87.0296 66.3066 81.7484C65.7988 82.2562 65.291 82.764 64.7832 83.2718C68.4395 83.2718 72.0957 83.2718 75.752 83.2718C75.2441 82.764 74.7363 82.2562 74.2285 81.7484C74.2285 87.0296 74.2285 92.3312 74.2285 97.6124C74.2285 99.5827 77.2754 99.5827 77.2754 97.6124C77.2754 92.3312 77.2754 87.0296 77.2754 81.7484C77.2754 80.9155 76.5848 80.2249 75.752 80.2249C72.0957 80.2249 68.4395 80.2249 64.7832 80.2249C63.9504 80.2249 63.2598 80.9155 63.2598 81.7484C63.2598 87.0296 63.2598 92.3312 63.2598 97.6124C63.2598 98.4452 63.9504 99.1358 64.7832 99.1358C68.4395 99.1358 72.0957 99.1358 75.752 99.1358C77.7223 99.1358 77.7223 96.089 75.752 96.089Z" fill="black"/>
</svg>
