<svg width="104" height="120" viewBox="0 0 104 120" fill="none" xmlns="http://www.w3.org/2000/svg">
<path d="M42.7196 69.0557H26.4493C24.1947 69.0557 22.3535 70.8969 22.3535 73.1515V105.692C22.3535 107.947 24.1947 109.788 26.4493 109.788H42.7008C44.9553 109.788 46.7965 107.947 46.7965 105.692V73.1515C46.8153 70.8969 44.9741 69.0557 42.7196 69.0557ZM44.9365 105.692C44.9365 106.913 43.9408 107.909 42.7196 107.909H26.4493C25.2281 107.909 24.2323 106.913 24.2323 105.692V73.1515C24.2323 71.9303 25.2281 70.9345 26.4493 70.9345H42.7008C43.922 70.9345 44.9178 71.9303 44.9178 73.1515V105.692H44.9365Z" fill="black"/>
<path d="M77.5523 69.0557H61.3008C59.0463 69.0557 57.2051 70.8969 57.2051 73.1515V105.692C57.2051 107.947 59.0463 109.788 61.3008 109.788H77.5523C79.8069 109.788 81.6481 107.947 81.6481 105.692V73.1515C81.6481 70.8969 79.8069 69.0557 77.5523 69.0557ZM79.7693 105.692C79.7693 106.913 78.7736 107.909 77.5523 107.909H61.3008C60.0796 107.909 59.0839 106.913 59.0839 105.692V73.1515C59.0839 71.9303 60.0796 70.9345 61.3008 70.9345H77.5523C78.7736 70.9345 79.7693 71.9303 79.7693 73.1515V105.692Z" fill="black"/>
<path d="M26.4493 50.3994H77.5523C79.8068 50.3994 81.6481 48.5582 81.6481 46.3036V14.3079C81.6481 12.0533 79.8068 10.2121 77.5523 10.2121H26.4493C24.1947 10.2121 22.3535 12.0533 22.3535 14.3079V46.3036C22.3535 48.5582 24.1947 50.3994 26.4493 50.3994ZM24.2323 14.3079C24.2323 13.0867 25.2281 12.0909 26.4493 12.0909H77.5523C78.7735 12.0909 79.7693 13.0867 79.7693 14.3079V46.3036C79.7693 47.5249 78.7735 48.5206 77.5523 48.5206H26.4493C25.2281 48.5206 24.2323 47.5249 24.2323 46.3036V14.3079Z" fill="black"/>
<path d="M78.5869 55.0588C76.182 55.0588 74.1905 56.7873 73.7396 59.0606H61.8281C61.302 59.0606 60.8887 59.4739 60.8887 60C60.8887 60.526 61.302 60.9394 61.8281 60.9394H73.7396C74.1717 63.2127 76.182 64.9412 78.5869 64.9412C81.3111 64.9412 83.5281 62.7242 83.5281 60C83.5281 57.2757 81.3111 55.0588 78.5869 55.0588ZM78.5869 63.0624C76.9523 63.0624 75.6184 61.7661 75.5432 60.1503C75.5432 60.0939 75.5808 60.0564 75.5808 60C75.5808 59.9436 75.562 59.906 75.5432 59.8497C75.6184 58.2339 76.9523 56.9376 78.5869 56.9376C80.2778 56.9376 81.6493 58.3091 81.6493 60C81.6493 61.6909 80.2778 63.0624 78.5869 63.0624Z" fill="black"/>
<path d="M102.766 117.303H91.0236V6.60484C91.0236 3.4109 88.4308 0.818176 85.2369 0.818176H18.7466C15.5526 0.818176 12.9599 3.4109 12.9599 6.60484V117.303H1.23627C0.710208 117.303 0.296875 117.716 0.296875 118.242C0.296875 118.768 0.710208 119.182 1.23627 119.182H102.785C103.311 119.182 103.724 118.768 103.724 118.242C103.724 117.716 103.292 117.303 102.766 117.303ZM14.8387 6.60484C14.8387 4.44424 16.586 2.69696 18.7466 2.69696H85.2557C87.4163 2.69696 89.1635 4.44424 89.1635 6.60484V117.303H14.8387V6.60484Z" fill="black"/>
</svg>
