<svg width="41.000000" height="41.000000" viewBox="0 0 41 41" fill="none" xmlns="http://www.w3.org/2000/svg" xmlns:xlink="http://www.w3.org/1999/xlink">
	<desc>
			Created with Pixso.
	</desc>
	<defs/>
	<path id="Vector" d="M7.48633 0C3.33936 0 0 3.33887 0 7.48633L0 33.5137C0 37.6611 3.33936 41 7.48633 41L21.5928 41L21.5928 24.9717L17.3545 24.9717L17.3545 19.2012L21.5928 19.2012L21.5928 14.2705C21.5928 10.3975 24.0977 6.84082 29.8662 6.84082C32.2012 6.84082 33.9287 7.06445 33.9287 7.06445L33.793 12.4541C33.793 12.4541 32.0312 12.4375 30.1094 12.4375C28.0293 12.4375 27.6953 13.3955 27.6953 14.9873L27.6953 19.2012L33.958 19.2012L33.6855 24.9717L27.6953 24.9717L27.6953 41L33.5137 41C37.6611 41 41 37.6611 41 33.5137L41 7.48633C41 3.33887 37.6611 0 33.5137 0L7.48633 0L7.48633 0Z" fill="#000000" fill-opacity="1.000000" fill-rule="nonzero"/>
</svg>
