<svg width="128" height="144" viewBox="0 0 128 144" fill="none" xmlns="http://www.w3.org/2000/svg">
<path d="M105.337 107.973C104.854 108.595 93.3848 123.588 93.3848 130.359C93.3848 137.452 99.1423 143.21 106.236 143.21C113.329 143.21 119.087 137.452 119.087 130.359C119.087 123.588 107.641 108.618 107.134 107.973C106.742 107.398 105.775 107.398 105.337 107.973ZM106.259 140.907C100.432 140.907 95.7108 136.162 95.7108 130.359C95.7108 125.799 102.643 115.481 106.259 110.599C109.874 115.504 116.807 125.799 116.807 130.359C116.807 136.162 112.085 140.907 106.259 140.907Z" fill="black"/>
<path d="M121.459 86.5551V74.349C121.459 55.1418 105.821 39.5042 86.614 39.5042H77.7012V38.4678C77.7012 35.0133 74.8915 32.2036 71.437 32.2036H61.7873V19.606C62.0176 19.3987 62.2479 19.1684 62.4782 18.9381C63.7909 19.2375 65.0346 19.629 66.1861 20.0896C72.0358 22.4848 75.9049 23.6363 78.0006 23.6363C84.3109 23.6363 89.4237 18.5006 89.4237 12.2133C89.4237 5.92601 84.3109 0.790253 78.0006 0.790253C75.8818 0.790253 72.0358 1.9648 66.1861 4.33692C65.0346 4.82056 63.7679 5.18904 62.4782 5.48843C60.6588 3.53086 58.1024 2.28722 55.2237 2.28722C52.6443 2.28722 50.3182 3.30056 48.5449 4.91268C47.9921 4.72843 47.4394 4.54419 46.8867 4.33692C41.06 1.94177 37.1909 0.790253 35.0952 0.790253C28.7849 0.790253 23.6721 5.92601 23.6721 12.2133C23.6721 18.5006 28.8079 23.6363 35.0952 23.6363C37.1909 23.6363 41.06 22.4848 46.8867 20.0896C47.4394 19.8593 47.9921 19.6751 48.5449 19.5139C48.9134 19.8363 49.2588 20.1587 49.6734 20.4351V32.1806H38.2043C34.7497 32.1806 31.94 34.9903 31.94 38.4448V39.4812H17.5461V35.1745C17.5461 28.9793 12.5024 23.9587 6.33032 23.9587H1.30972C0.66487 23.9587 0.158203 24.4654 0.158203 25.1103V84.7357C0.158203 85.3806 0.66487 85.8872 1.30972 85.8872H6.33032C12.5255 85.8872 17.5461 80.8436 17.5461 74.6715V70.3648H31.94V71.4012C31.94 74.8557 34.7497 77.6654 38.2043 77.6654H71.46C74.9146 77.6654 77.7243 74.8557 77.7243 71.4012V70.3648H83.7812C88.3643 70.3648 92.1182 74.0957 92.1182 78.7018V86.5551H91.1279C87.5812 86.5551 84.7025 89.4339 84.7025 92.9806C84.7025 96.5272 87.5812 99.406 91.1279 99.406H121.413C124.959 99.406 127.838 96.5272 127.838 92.9806C127.838 89.4339 124.982 86.5781 121.459 86.5551ZM67.0612 6.47874C73.8782 3.69207 76.78 3.09328 78.0006 3.09328C83.0212 3.09328 87.1206 7.19268 87.1206 12.2133C87.1206 17.2339 83.0443 21.3333 78.0006 21.3333C76.78 21.3333 73.9012 20.7575 67.0612 17.9478C66.0709 17.5333 64.9885 17.2109 63.9061 16.9115C64.6661 15.5066 65.1497 13.9175 65.1497 12.2133C65.1497 10.509 64.6661 8.91995 63.9061 7.5151C65.0115 7.21571 66.0709 6.89328 67.0612 6.47874ZM62.8467 12.2133C62.8467 16.4048 59.4382 19.8363 55.2237 19.8363C53.0588 19.8363 51.1012 18.9151 49.7194 17.4642C48.4297 16.1054 47.6006 14.263 47.6006 12.2363C47.6006 10.2096 48.4067 8.39025 49.6964 7.03147C49.6964 7.03147 49.6964 7.03147 49.7194 7.00844C51.1012 5.55753 53.0588 4.63631 55.2237 4.63631C59.4382 4.61328 62.8467 8.02177 62.8467 12.2133ZM46.0115 17.9478C39.1946 20.7575 36.3158 21.3333 35.0952 21.3333C30.0746 21.3333 25.9752 17.2339 25.9752 12.2133C25.9752 7.19268 30.0746 3.09328 35.0952 3.09328C36.3158 3.09328 39.1946 3.66904 46.0115 6.47874C46.3109 6.59389 46.6334 6.68601 46.9327 6.80116C45.9194 8.36722 45.2976 10.2096 45.2976 12.2133C45.2976 14.2169 45.8964 16.0824 46.9327 17.6254C46.6334 17.7406 46.3109 17.8327 46.0115 17.9478ZM51.9764 21.5406C52.9897 21.909 54.0721 22.1393 55.2237 22.1393C56.7667 22.1393 58.1946 21.7709 59.4843 21.126V32.1806H51.9764V21.5406ZM15.2431 74.6484C15.2431 79.5769 11.2358 83.5612 6.33032 83.5612H2.46123V26.2618H6.33032C11.2588 26.2618 15.2431 30.269 15.2431 35.1745V74.6484ZM17.5461 68.0387V41.7842H31.94V68.0387H17.5461ZM75.4212 71.3781C75.4212 73.566 73.6479 75.3394 71.46 75.3394H38.2043C36.0164 75.3394 34.243 73.566 34.243 71.3781V38.4448C34.243 36.2569 36.0164 34.4836 38.2043 34.4836H71.46C73.6479 34.4836 75.4212 36.2569 75.4212 38.4448V71.3781ZM83.7582 68.0387H77.7012V41.7842H86.614C104.555 41.7842 119.156 56.3854 119.156 74.326V86.5321H94.3982V78.6787C94.3982 72.806 89.6309 68.0387 83.7582 68.0387ZM121.413 97.103H91.1279C88.8479 97.103 87.0055 95.2606 87.0055 92.9806C87.0055 90.7006 88.8479 88.8581 91.1279 88.8581H121.413C123.693 88.8581 125.535 90.7006 125.535 92.9806C125.535 95.2375 123.67 97.103 121.413 97.103Z" fill="black"/>
</svg>
