<svg width="146" height="81" viewBox="0 0 146 81" fill="none" xmlns="http://www.w3.org/2000/svg">
<path d="M18.2553 79.9298L57.6973 63.4273C61.9994 61.6321 64.8216 57.7999 65.5788 53.519L74.4584 49.7904L84.0608 72.8869C85.4031 76.0976 88.2253 78.3071 91.667 78.825C92.1488 78.894 92.6307 78.9286 93.1125 78.9286C96.038 78.9286 98.7569 77.6512 100.65 75.3381L143.775 22.4474C146.115 19.5819 146.631 15.8534 145.22 12.4355C143.809 9.01763 140.78 6.77358 137.098 6.42834L69.3303 0.0414132C65.923 -0.269302 62.5845 1.1807 60.5195 3.97714C58.4545 6.77358 58.0415 10.3641 59.3837 13.5748L69.5024 37.9142L61.2767 41.3665C60.1753 40.3999 58.9707 39.6058 57.594 39.0189C54.3244 37.6725 50.745 37.6725 47.5098 39.0534L8.10221 55.5559C1.39088 58.3523 -1.7755 66.1202 1.01229 72.8524C2.35456 76.0976 4.90142 78.6524 8.17105 79.9988C9.78865 80.6548 11.4751 81 13.1959 81C14.8824 80.9655 16.6032 80.6202 18.2553 79.9298ZM92.906 31.8379C94.4203 31.2165 96.1756 31.9415 96.7951 33.426C97.4146 34.9451 96.6919 36.7058 95.2119 37.3272L74.7338 45.8892L65.6821 49.6868C65.5444 48.4785 65.3035 47.2701 64.8216 46.0963C64.5119 45.3713 64.1333 44.6808 63.7203 44.0594L92.906 31.8379ZM62.5501 12.2629C61.6897 10.1914 61.965 7.84382 63.3073 6.04857C64.6495 4.21881 66.7834 3.28666 69.0205 3.4938L136.822 9.91525C139.197 10.1569 141.159 11.6069 142.088 13.8165C143.017 16.026 142.639 18.4427 141.159 20.307L97.9997 73.1285C96.5886 74.8893 94.3859 75.7178 92.1832 75.4071C89.9461 75.0964 88.122 73.6464 87.2616 71.575L77.6592 48.4785L96.5542 40.5725C99.8238 39.1915 101.373 35.4284 99.9959 32.1487C98.6537 28.8689 94.8678 27.3153 91.5982 28.6963L72.7031 36.6022L62.5501 12.2629ZM4.17866 71.5059C2.11364 66.5345 4.454 60.8035 9.41007 58.7321L48.8521 42.2296C50.0567 41.7118 51.3301 41.4701 52.6036 41.4701C53.8426 41.4701 55.116 41.7118 56.3206 42.1951C57.6285 42.7475 58.7642 43.5415 59.6935 44.5427C59.7279 44.5773 59.7279 44.6118 59.7623 44.6118C60.5195 45.4404 61.1734 46.3725 61.6208 47.4427C63.6859 52.4142 61.3455 58.1452 56.3894 60.2166L16.913 76.7536C14.5038 77.7547 11.8537 77.7547 9.44448 76.7881C7.0697 75.7869 5.17676 73.9226 4.17866 71.5059Z" fill="black"/>
</svg>
